
<svg xmlns="http://www.w3.org/2000/svg" version="1.1" xmlns:xlink="http://www.w3.org/1999/xlink" preserveAspectRatio="none" x="0px" y="0px" width="135px" height="99px" viewBox="0 0 135 99">
<defs>
<g id="Layer1_0_FILL">
<path fill="#FFCD00" stroke="none" d="
M 26.9 1.85
Q 25.5 0.45 23.45 0.45 21.45 0.45 20.05 1.85 20 1.9 19.95 1.95 0.35 21.55 0.35 49.25 0.3 76.95 19.8 96.5 21.25 97.95 23.25 97.95 25.25 97.95 26.65 96.5 28.1 95.1 28.1 93.1 28.1 91.1 26.7 89.65 10.05 72.9 10.05 49.25 10.05 25.6 26.8 8.85 26.85 8.8 26.9 8.75 28.35 7.3 28.35 5.3 28.35 3.3 26.9 1.85
M 67.65 39.6
Q 63.65 39.6 60.8 42.45 58 45.25 58 49.25 58 53.3 60.8 56.15 63.65 58.95 67.65 58.95 71.65 58.95 74.5 56.1 77.3 53.3 77.35 49.25 77.35 45.25 74.5 42.45 71.65 39.6 67.65 39.6
M 47.1 28.95
Q 47 29.05 46.9 29.15 38.45 37.55 38.5 49.5 38.5 61.25 46.65 69.6 48.05 71.05 50.05 71.1 52.05 71.1 53.5 69.7 54.95 68.25 55 66.25 55 64.25 53.6 62.8 48.2 57.3 48.2 49.5 48.2 41.6 53.8 36 53.9 35.9 54 35.8 55.4 34.4 55.4 32.4 55.4 30.35 54 28.95 52.55 27.5 50.55 27.5 48.55 27.5 47.1 28.95
M 42.05 19
Q 42.05 17 40.6 15.55 39.2 14.15 37.15 14.15 35.15 14.15 33.7 15.55 33.6 15.65 33.5 15.75 19.55 29.75 19.55 49.5 19.55 69.1 33.3 83 34.7 84.45 36.7 84.45 38.7 84.45 40.15 83.05 41.6 81.65 41.6 79.6 41.6 77.6 40.2 76.15 29.25 65.1 29.3 49.5 29.3 33.75 40.4 22.65 40.5 22.55 40.6 22.45 42.05 21 42.05 19
M 87.6 29.15
Q 87.5 29 87.4 28.9 85.95 27.5 83.95 27.5 81.95 27.5 80.5 28.9 79.1 30.35 79.1 32.35 79.1 34.4 80.5 35.8 80.6 35.9 80.75 36 86.35 41.6 86.35 49.5 86.35 57.3 80.9 62.85 79.5 64.25 79.55 66.3 79.55 68.3 81 69.7 82.45 71.1 84.45 71.1 86.45 71.05 87.85 69.65 96.05 61.25 96.1 49.5 96.05 37.6 87.6 29.15
M 100.8 15.55
Q 99.35 14.1 97.35 14.15 95.3 14.1 93.9 15.55 92.45 16.95 92.5 19 92.45 21 93.9 22.45 94 22.55 94.1 22.65 105.25 33.75 105.25 49.5 105.25 65.1 94.3 76.15 92.9 77.6 92.9 79.6 92.9 81.65 94.35 83.05 95.8 84.45 97.8 84.45 99.8 84.45 101.2 83 114.95 69.1 115 49.5 114.95 29.75 101 15.75 100.9 15.65 100.8 15.55
M 107.6 1.85
Q 106.15 3.25 106.2 5.3 106.15 7.3 107.6 8.7 107.65 8.8 107.7 8.8 124.45 25.6 124.5 49.3 124.45 72.9 107.8 89.65 106.35 91.1 106.4 93.1 106.4 95.1 107.8 96.5 109.25 97.95 111.25 97.95 113.25 97.95 114.7 96.5 134.2 76.95 134.2 49.3 134.2 21.55 114.6 1.95 114.55 1.9 114.5 1.85 113.05 0.4 111.05 0.45 109.05 0.4 107.6 1.85 Z"/>
</g>
</defs>

<g transform="matrix( 1, 0, 0, 1, 0,0) ">
<use xlink:href="#Layer1_0_FILL"/>
</g>
</svg>
