
<svg xmlns="http://www.w3.org/2000/svg" version="1.1" xmlns:xlink="http://www.w3.org/1999/xlink" preserveAspectRatio="none" x="0px" y="0px" width="663px" height="132px" viewBox="0 0 663 132">
<defs>
<g id="Layer0_0_FILL">
<path fill="#FFFFFF" stroke="none" d="
M 98.15 5.4
Q 93.7599609375 1.0033203125 87.55 1
L 16.5 1
Q 10.2900390625 1.0033203125 5.9 5.4 1.5033203125 9.7900390625 1.5 16 1.5033203125 22.2099609375 5.9 26.6 10.2900390625 30.9966796875 16.5 31
L 35.55 31 35.55 52.35
Q 35.5595703125 52.6912109375 35.55 53 35.5595703125 53.3087890625 35.55 53.6
L 35.55 64
Q 35.5505859375 69.9634765625 35.55 71
L 35.55 113
Q 35.5533203125 119.2099609375 39.95 123.6 44.3400390625 127.9966796875 50.55 128 56.7599609375 127.9966796875 61.15 123.6 65.5466796875 119.2099609375 65.55 113
L 65.55 54
Q 65.5498046875 53.4939453125 65.5 53 65.5498046875 52.5060546875 65.55 52
L 65.55 31 87.55 31
Q 93.7599609375 30.9966796875 98.15 26.6 102.5466796875 22.2099609375 102.55 16 102.5466796875 9.7900390625 98.15 5.4
M 655.6 125.85
Q 660 121.45 660 115.25 660 96.65 646.8 83.45 633.6 70.25 615 70.25 614.65 70.25 610.3 70.25
L 586.05 70.25
Q 579.85 70.25 575.45 74.65 571.05 79.05 571.05 85.25 571.05 91.45 575.45 95.85 579.85 100.25 586.05 100.25
L 610.05 100.25
Q 610.1 100.25 610.3 100.25 613.6 100.2 613.7 100.2 614.35 100.25 615 100.25 621.2 100.25 625.6 104.65 630 109.05 630 115.25 630 121.45 634.4 125.85 638.8 130.25 645 130.25 651.2 130.25 655.6 125.85
M 655.6 55.85
Q 660 51.45 660 45.25 660 26.65 646.8 13.45 634.5 1.15 617.45 0.3
L 617.45 0.25 586.05 0.25
Q 579.85 0.25 575.45 4.65 571.05 9.05 571.05 15.25 571.05 21.45 575.45 25.85 579.85 30.25 586.05 30.25
L 615.3 30.25
Q 621.3 30.35 625.6 34.65 630 39.05 630 45.25 630 51.45 634.4 55.85 638.8 60.25 645 60.25 651.2 60.25 655.6 55.85
M 561 64
Q 561 57.8 556.6 53.4 552.2 49 546 49
L 476.35 49.05
Q 473.6640625 49.1005859375 469.55 49.25 465.49375 49.4384765625 459.6 50.95
L 459.7 50.9
Q 451.8185546875 53.28046875 445.05 58.7
L 445.2 58.65
Q 443.4521484375 60.0271484375 441.85 61.55 441.73515625 61.6962890625 441.6 61.8 441.4 62 441.2 62.2 434.316796875 69.0798828125 428.95 87.4
L 428.95 86.6
Q 428.7794921875 88.46328125 428.15 90.1 427.0638671875 93.1361328125 424.6 95.6 420.2 100 414 100 413.25 100 412.5 100.1 411.75 100 411 100 404.8 100 400.4 95.6 396.2 91.4 396 85.55
L 396 45.7
Q 396.15 39.7 400.4 35.45 404.5 31.35 410.2 31.1
L 410.2 31 436 31
Q 442.2 31 446.6 26.6 451 22.2 451 16 451 9.8 446.6 5.4 442.2 1 436 1
L 410 1 410 1.05
Q 392.05 1.35 379.2 14.25 366.35 27.1 366 45.05 366 45.2 366 45.35
L 366 52
Q 366.032421875 52.0251953125 366.05 52.05
L 366 52.05 366 86
Q 366 86.2 366 86.45 366.5 104.1 379.2 116.8 392.4 130 411 130 411.75 130 412.5 129.95 413.25 130 414 130 432.6 130 445.8 116.8 452.6609375 109.9390625 455.35 103.9 457.7658203125 98.615234375 457.95 94.95 457.911328125 91.505078125 458.85 88.9 459.93359375 85.8701171875 462.4 83.4 462.475 83.325 462.55 83.25
L 462.65 83.1
Q 463.2169921875 82.6169921875 463.8 82.15
L 463.9 82.05
Q 465.98125 80.41953125 468.35 79.65
L 468.45 79.6
Q 470.596875 78.971875 473 79 473.6630859375 78.999609375 477.7 79 478.3158203125 78.9998046875 479 79
L 546 79
Q 552.2 79 556.6 74.6 561 70.2 561 64
M 344.45 30.8
Q 349.0958984375 30.1041015625 352.6 26.6 357 22.2 357 16 357 9.8 352.6 5.4 349.0958984375 1.8958984375 344.45 1.15 343.2625 1 342 1
L 313.55 1
Q 312.3 1 311.1 1.2 310.1 1.05 309 1.05 290.4 1.05 277.2 14.25 264.35 27.1 264 45.05 264 45.2 264 45.35
L 264 86
Q 264 86.2 264 86.45 264.5 104.1 277.2 116.8 290.4 130 309 130 309.75 130 310.5 129.95 311.25 130 312 130 330.6 130 343.8 116.8 344.129296875 116.470703125 344.45 116.15 357 103.1359375 357 85 357 83.45 356.75 82 355.9 77.7 352.6 74.4 350.3 72.1 347.55 71 346.75 70.7 346 70.5 345.241015625 70.3001953125 344.45 70.15 343.2611328125 70 342 70 335.8 70 331.4 74.4 328.1 77.7 327.3 82 327 83.45 327 85 327 91.2 322.6 95.6 318.2 100 312 100 311.25 100 310.5 100.1 309.75 100 309 100 302.8 100 298.4 95.6 294.2 91.4 294 85.55
L 294 45.7
Q 294.15 39.7 298.4 35.45 302.8 31.05 309 31.05 310.25 31.05 311.45 30.9 312.5 31 313.55 31
L 342 31
Q 343.2625 31 344.45 30.8
M 196.1 125.6
Q 200.4966796875 121.2099609375 200.5 115 200.5044921875 96.3978515625 187.3 83.2 174.1021484375 69.9955078125 155.5 70 154.2240234375 70.0005859375 150.55 70
L 126.55 70
Q 120.3400390625 70.0033203125 115.95 74.4 111.5533203125 78.7900390625 111.55 85 111.5533203125 91.2099609375 115.95 95.6 120.3400390625 99.9966796875 126.55 100
L 153.05 99.85 153 99.8
Q 154.2240234375 99.9994140625 155.5 100 161.6982421875 100.0048828125 166.1 104.4 170.4951171875 108.8017578125 170.5 115 170.5033203125 121.2099609375 174.9 125.6 179.2900390625 129.9966796875 185.5 130 191.7099609375 129.9966796875 196.1 125.6
M 200.5 46
Q 200.5044921875 27.3978515625 187.3 14.2 174.1021484375 0.9955078125 155.6 1
L 126.55 1
Q 120.3400390625 1.0033203125 115.95 5.4 111.5533203125 9.7900390625 111.55 16 111.5533203125 22.2099609375 115.95 26.6 120.3400390625 30.9966796875 126.55 31
L 150.55 31
Q 151.8259765625 30.9994140625 155.5 31 161.6982421875 31.0048828125 166.1 35.4 170.4951171875 39.8017578125 170.5 46 170.5033203125 52.2099609375 174.9 56.6 179.2900390625 60.9966796875 185.5 61 191.7099609375 60.9966796875 196.1 56.6 200.4966796875 52.2099609375 200.5 46
M 247 56.35
Q 247 55.7 247 55 246.65 49.45 242.6 45.4 238.2 41 232 41 225.8 41 221.4 45.4 217.35 49.45 217.05 55 217 55.7 217 56.35
L 217 115
Q 217 121.2 221.4 125.6 225.8 130 232 130 238.2 130 242.6 125.6 247 121.2 247 115
L 247 56.35
M 545 130
Q 551.2 130 555.6 125.6 560 121.2 560 115 560 108.8 555.6 104.4 551.2 100 545 100
L 478 100
Q 471.8 100 467.4 104.4 463 108.8 463 115 463 121.2 467.4 125.6 471.8 130 478 130
L 545 130
M 545 30
Q 551.2 30 555.6 25.6 560 21.2 560 15 560 8.8 555.6 4.4 551.2 0 545 0
L 478 0
Q 471.8 0 467.4 4.4 463 8.8 463 15 463 21.2 467.4 25.6 471.8 30 478 30
L 545 30 Z"/>

<path fill="#FFCC00" stroke="none" d="
M 247 16.05
L 247 15
Q 247 8.8 242.6 4.4 238.2 0 232 0 225.8 0 221.4 4.4 217 8.8 217 15
L 217 16.05
Q 217 22.25 221.4 26.65 225.8 31.05 232 31.05 238.2 31.05 242.6 26.65 247 22.25 247 16.05 Z"/>
</g>
</defs>

<g transform="matrix( 1, 0, 0, 1, 0,0) ">
<use xlink:href="#Layer0_0_FILL"/>
</g>
</svg>
